<svg xmlns="http://www.w3.org/2000/svg" width="256" height="256" viewBox="0 0 100 100"><rect width="100" height="100" rx="20" fill="#1f305e"></rect><path fill="#ffffff" d="M25.79 21.74L24.98 17.78L36.05 18.05L50.90 17.69Q70.34 17.69 70.34 32.00L70.34 32.00Q70.34 42.35 59.36 46.94L59.36 46.94Q59.18 46.94 59.18 47.12Q59.18 47.30 59.36 47.30L59.36 47.30Q64.94 47.93 69.98 52.34Q75.02 56.75 75.02 63.32L75.02 63.32Q75.02 72.41 68.86 77.36Q62.69 82.31 50.81 82.31L50.81 82.31L36.14 81.95L26.15 82.22L25.43 78.26Q30.47 77.72 31.60 77.23Q32.72 76.73 32.72 74.75L32.72 74.75L32.72 25.25Q32.72 23.45 31.42 22.78Q30.11 22.10 25.79 21.74L25.79 21.74ZM48.20 21.92Q42.44 21.92 41.68 22.42Q40.91 22.91 40.91 23.45L40.91 23.45L40.91 46.04Q40.91 46.94 41.81 47.03L41.81 47.03L47.03 47.03Q53.87 47.03 57.38 43.52Q60.89 40.01 60.89 33.85Q60.89 27.68 57.42 24.80Q53.96 21.92 48.20 21.92ZM40.91 52.16L40.91 72.23Q40.91 78.26 49.33 78.26Q57.74 78.26 61.39 74.34Q65.03 70.43 65.03 64.85L65.03 64.85Q65.03 57.11 60.35 54.14Q55.67 51.17 48.02 51.17L48.02 51.17L41.81 51.17Q40.91 51.17 40.91 52.16L40.91 52.16Z"></path></svg>